<svg xmlns="http://www.w3.org/2000/svg" viewBox="0 0 400 300" width="406" height="306" class="illustration styles_illustrationTablet__1DWOa"><g id="_184_python_outline" data-name="#184_python_outline"><polygon points="273.96 237.77 126.03 237.77 126.03 87.06 146.29 62.23 273.96 62.23 273.96 237.77" fill="#c7c7c7"></polygon><path d="M274,238.77H126a1,1,0,0,1-1-1V87.07a1,1,0,0,1,.22-.64l20.26-24.84a1,1,0,0,1,.77-.36H274a1,1,0,0,1,1,1V237.77A1,1,0,0,1,274,238.77Zm-146.92-2H273V63.23H146.77L127,87.42Z" fill="#093f68"></path><path d="M171.7,93.3H146.29a2.5,2.5,0,0,1,0-5H171.7a2.5,2.5,0,0,1,0,5Z" fill="#dfeaef"></path><path d="M206.77,110.21H154.64a2.5,2.5,0,0,1,0-5h52.13a2.5,2.5,0,0,1,0,5Z" fill="#dfeaef"></path><path d="M193.83,127.13H154.64a2.5,2.5,0,0,1,0-5h39.19a2.5,2.5,0,1,1,0,5Z" fill="#dfeaef"></path><path d="M173.15,144h-22.5a2.5,2.5,0,0,1,0-5h22.5a2.5,2.5,0,0,1,0,5Z" fill="#dfeaef"></path><path d="M182.1,161H156.7a2.5,2.5,0,0,1,0-5h25.4a2.5,2.5,0,0,1,0,5Z" fill="#dfeaef"></path><path d="M195,177.87H155.82a2.5,2.5,0,0,1,0-5H195a2.5,2.5,0,0,1,0,5Z" fill="#dfeaef"></path><path d="M165.35,194.79H146.29a2.5,2.5,0,0,1,0-5h19.06a2.5,2.5,0,0,1,0,5Z" fill="#dfeaef"></path><path d="M195,211.7H153.31a2.5,2.5,0,0,1,0-5H195a2.5,2.5,0,1,1,0,5Z" fill="#dfeaef"></path><path d="M235,211.7h-27.4a2.5,2.5,0,0,1,0-5H235a2.5,2.5,0,1,1,0,5Z" fill="#dfeaef"></path><path d="M226.13,127.13H206.77a2.5,2.5,0,1,1,0-5h19.36a2.5,2.5,0,0,1,0,5Z" fill="#dfeaef"></path><path d="M253.71,110.21H216.45a2.5,2.5,0,0,1,0-5h37.26a2.5,2.5,0,0,1,0,5Z" fill="#dfeaef"></path><path d="M247.54,127.13H236.65a2.5,2.5,0,1,1,0-5h10.89a2.5,2.5,0,0,1,0,5Z" fill="#dfeaef"></path><path d="M200.48,161H189.6a2.5,2.5,0,0,1,0-5h10.88a2.5,2.5,0,0,1,0,5Z" fill="#dfeaef"></path><path d="M253.71,161H209.43a2.5,2.5,0,0,1,0-5h44.28a2.5,2.5,0,0,1,0,5Z" fill="#dfeaef"></path><path d="M216.45,177.87h-9.68a2.5,2.5,0,1,1,0-5h9.68a2.5,2.5,0,0,1,0,5Z" fill="#dfeaef"></path><path d="M253.71,211.7h-6.17a2.5,2.5,0,0,1,0-5h6.17a2.5,2.5,0,0,1,0,5Z" fill="#dfeaef"></path><rect x="211.46" y="74.99" width="72.14" height="39.91" rx="4.83" fill="#58C07A"></rect><path d="M278.78,115.9H216.29a5.84,5.84,0,0,1-5.83-5.83V79.81A5.83,5.83,0,0,1,216.29,74h62.49a5.83,5.83,0,0,1,5.83,5.82v30.26A5.84,5.84,0,0,1,278.78,115.9ZM216.29,76a3.83,3.83,0,0,0-3.83,3.82v30.26a3.84,3.84,0,0,0,3.83,3.83h62.49a3.84,3.84,0,0,0,3.83-3.83V79.81A3.83,3.83,0,0,0,278.78,76Z" fill="#093f68"></path><path d="M229.26,82.38h9.33a18.19,18.19,0,0,1,3.69.36,8.22,8.22,0,0,1,3,1.22,6.16,6.16,0,0,1,2.06,2.34,8,8,0,0,1,.76,3.71,8.43,8.43,0,0,1-.71,3.69,6,6,0,0,1-1.95,2.38,8,8,0,0,1-2.94,1.26,17.22,17.22,0,0,1-3.69.37h-4.05v9.79h-5.53ZM234.79,93h3.69a6.76,6.76,0,0,0,1.44-.15,3.85,3.85,0,0,0,1.24-.47,2.65,2.65,0,0,0,.89-.93,3,3,0,0,0,.33-1.47,2.45,2.45,0,0,0-.44-1.54,3.06,3.06,0,0,0-1.13-.91,5.05,5.05,0,0,0-1.55-.41c-.57-.05-1.11-.08-1.63-.08h-2.84Z" fill="#093f68"></path><path d="M257.78,96.79l-9.43-14.41h6.88l5.32,9.41,5.64-9.41h6.57l-9.44,14.41V107.5h-5.54Z" fill="#093f68"></path><path d="M126.94,226.77v-32H166V160.67c0-10.56-7.78-19.13-17.38-19.13h-9.75c-9.6,0-17.38,8.57-17.38,19.13v6.44h-9c-7.5,0-13.57,6.69-13.57,14.93v29.8c0,8.25,6.07,14.93,13.57,14.93Z" fill="#58C07A"></path><path d="M126.94,227.77h-14.5c-8,0-14.57-7.14-14.57-15.93V182c0-8.78,6.53-15.93,14.57-15.93h8v-5.44c0-11.1,8.25-20.13,18.38-20.13h9.75c10.14,0,18.38,9,18.38,20.13v34.14a1,1,0,0,1-1,1H127.94v31A1,1,0,0,1,126.94,227.77Zm-14.5-59.66c-6.93,0-12.57,6.25-12.57,13.93v29.8c0,7.68,5.64,13.93,12.57,13.93h13.5v-31a1,1,0,0,1,1-1H165V160.67c0-10-7.35-18.13-16.38-18.13h-9.75c-9,0-16.38,8.14-16.38,18.13v6.44a1,1,0,0,1-1,1Z" fill="#093f68"></path><circle cx="134.53" cy="156.41" r="3.2" fill="#093f68"></circle><g id="ahcQ9Z"><path d="M291.37,189.53a3.31,3.31,0,0,0-2.56-3.09c-1.24-.27-2.49-.47-3.74-.66a.82.82,0,0,1-.74-.62c-.38-1-.79-2-1.23-2.95a.63.63,0,0,1,.07-.74c.75-1,1.52-2.07,2.22-3.15a3.28,3.28,0,0,0-.29-4c-1.14-1.26-2.37-2.44-3.57-3.65a3.51,3.51,0,0,0-4.79-.43c-.94.65-1.87,1.31-2.79,2a.65.65,0,0,1-.75.08c-1.06-.47-2.13-.91-3.21-1.33a.65.65,0,0,1-.48-.58c-.18-1.14-.37-2.28-.57-3.43a3.45,3.45,0,0,0-3.31-3q-2.64-.06-5.28,0a3.34,3.34,0,0,0-3.21,2.62c-.28,1.28-.48,2.58-.69,3.87a.65.65,0,0,1-.48.58c-1,.41-2.06.85-3.07,1.3a.59.59,0,0,1-.71-.06c-1-.75-2-1.51-3.09-2.2a3.29,3.29,0,0,0-4,.26c-1.34,1.23-2.65,2.51-3.88,3.84a3.39,3.39,0,0,0-.23,4.51c.69,1,1.4,2,2.08,3a.66.66,0,0,1,.06.53c-.42,1.11-.87,2.21-1.34,3.3a.63.63,0,0,1-.41.34c-1.14.21-2.28.4-3.43.58a3.47,3.47,0,0,0-3.07,3.22c-.06,1.84-.05,3.68,0,5.52a3.3,3.3,0,0,0,2.55,3.06c1.3.3,2.64.5,4,.72a.63.63,0,0,1,.55.46c.41,1,.86,2.08,1.32,3.11a.57.57,0,0,1-.06.66c-.7.95-1.39,1.9-2.06,2.87a3.47,3.47,0,0,0,.4,4.64q1.65,1.69,3.35,3.34a3.47,3.47,0,0,0,4.75.36c1-.67,1.92-1.35,2.87-2a.53.53,0,0,1,.62,0c1,.42,2,.84,3,1.21a.75.75,0,0,1,.54.69c.18,1.13.36,2.26.56,3.39a3.42,3.42,0,0,0,3.16,3c1.86.06,3.71,0,5.57,0A3.35,3.35,0,0,0,269,218c.27-1.25.46-2.52.67-3.78a.72.72,0,0,1,.52-.66c1-.4,2.06-.83,3.08-1.27a.59.59,0,0,1,.67.06c.94.7,1.91,1.37,2.86,2.05a3.59,3.59,0,0,0,2.31.7,2.94,2.94,0,0,0,2.05-.83c1.22-1.15,2.39-2.34,3.57-3.52a3.52,3.52,0,0,0,.43-4.86c-.65-.93-1.31-1.87-2-2.79a.59.59,0,0,1-.06-.67q.68-1.54,1.29-3.12a.67.67,0,0,1,.59-.47l3.43-.56a3.45,3.45,0,0,0,3-3.28C291.42,193.15,291.41,191.34,291.37,189.53Zm-28.29,14.95a12.21,12.21,0,1,1,12.23-12.19A12.21,12.21,0,0,1,263.08,204.48Z" fill="#f56132" stroke="#093f68" stroke-linecap="round" stroke-linejoin="round" stroke-width="2"></path></g><g id="ahcQ9Z-2" data-name="ahcQ9Z"><path d="M237.9,153.49a2.53,2.53,0,0,0-1.94-2.35c-.94-.2-1.89-.35-2.84-.5a.61.61,0,0,1-.56-.47c-.29-.75-.6-1.5-.93-2.23a.48.48,0,0,1,.05-.57c.57-.79,1.16-1.57,1.68-2.39a2.48,2.48,0,0,0-.22-3c-.86-.95-1.8-1.85-2.71-2.76a2.66,2.66,0,0,0-3.63-.33c-.71.49-1.42,1-2.12,1.51a.48.48,0,0,1-.56.06c-.81-.36-1.62-.69-2.44-1a.51.51,0,0,1-.37-.45c-.13-.86-.27-1.73-.43-2.6a2.62,2.62,0,0,0-2.51-2.25c-1.33,0-2.67,0-4,0a2.55,2.55,0,0,0-2.43,2c-.21,1-.36,2-.52,2.94a.51.51,0,0,1-.37.44c-.78.31-1.56.64-2.33,1a.45.45,0,0,1-.53,0c-.78-.57-1.55-1.14-2.35-1.67a2.49,2.49,0,0,0-3.07.19c-1,.94-2,1.91-2.95,2.92a2.57,2.57,0,0,0-.17,3.42c.52.75,1.06,1.49,1.58,2.24a.47.47,0,0,1,0,.4c-.32.84-.66,1.68-1,2.51a.55.55,0,0,1-.32.26c-.86.16-1.73.3-2.6.44a2.61,2.61,0,0,0-2.32,2.44c0,1.39,0,2.79,0,4.18a2.5,2.5,0,0,0,1.92,2.33c1,.22,2,.38,3,.55a.47.47,0,0,1,.42.34c.31.8.65,1.58,1,2.36a.44.44,0,0,1-.05.51c-.53.71-1.05,1.43-1.56,2.17a2.63,2.63,0,0,0,.31,3.52c.83.86,1.68,1.7,2.53,2.54a2.64,2.64,0,0,0,3.61.27c.73-.51,1.46-1,2.18-1.55a.41.41,0,0,1,.47,0c.74.32,1.49.64,2.24.92a.57.57,0,0,1,.42.53c.13.85.27,1.71.42,2.56a2.6,2.6,0,0,0,2.4,2.25c1.4,0,2.81,0,4.22,0a2.53,2.53,0,0,0,2.34-2c.2-.95.35-1.91.51-2.87a.56.56,0,0,1,.39-.5c.79-.3,1.57-.63,2.34-1a.45.45,0,0,1,.51.05c.72.53,1.45,1,2.17,1.56a2.78,2.78,0,0,0,1.75.53,2.25,2.25,0,0,0,1.56-.64c.92-.86,1.81-1.77,2.71-2.66a2.68,2.68,0,0,0,.33-3.69c-.5-.71-1-1.42-1.52-2.12a.47.47,0,0,1,0-.51c.35-.78.68-1.57,1-2.36a.5.5,0,0,1,.46-.36c.86-.13,1.73-.28,2.6-.43a2.61,2.61,0,0,0,2.27-2.48C237.94,156.23,237.93,154.86,237.9,153.49Zm-21.46,11.34a9.26,9.26,0,1,1,9.28-9.25A9.26,9.26,0,0,1,216.44,164.83Z" fill="#ffbc0e" stroke="#093f68" stroke-linecap="round" stroke-linejoin="round" stroke-width="2"></path></g><path d="M147.56,168.11H121.49a1,1,0,0,1,0-2h26.07a1,1,0,0,1,0,2Z" fill="#093f68"></path></g></svg>